<svg width="32" height="32" viewBox="0 0 32 32" fill="none" xmlns="http://www.w3.org/2000/svg">
<path d="M17.8563 6.646C17.3021 5.83097 16.813 5.08113 16.3566 4.3965C16.2914 4.2987 16.1936 4.20089 16.0958 4.13569C15.7046 3.87488 15.183 4.00528 14.9222 4.3965C14.4983 5.08113 14.0093 5.79837 13.4225 6.646C10.847 10.4278 7 16.133 7 19.3932C7 21.7731 7.97804 23.9248 9.54291 25.4897C11.1078 27.0219 13.2595 28 15.6394 28C18.0193 28 20.171 27.0219 21.7359 25.4571C23.3007 23.8922 24.2788 21.7405 24.2788 19.3606C24.2788 16.1004 20.4318 10.4278 17.8563 6.646ZM20.5622 24.2834C19.2908 25.5549 17.5629 26.3047 15.6394 26.3047C13.7159 26.3047 11.988 25.5223 10.7166 24.2834C9.44511 23.012 8.69528 21.2841 8.69528 19.3606C8.69528 16.6221 12.3792 11.1776 14.8244 7.55885C15.1178 7.13503 15.3786 6.71121 15.6394 6.35259C15.9002 6.71121 16.161 7.13503 16.4544 7.55885C18.8995 11.2102 22.5835 16.6221 22.5835 19.3606C22.5835 21.2841 21.8011 23.012 20.5622 24.2834Z" fill="black"/>
<path d="M20.6926 18.7738C20.2362 18.7412 19.845 19.0998 19.8124 19.5562C19.7798 20.2734 19.5515 20.9581 19.1929 21.5449C18.8343 22.1317 18.3127 22.6533 17.6933 22.9794C17.302 23.2076 17.139 23.7292 17.3672 24.1204C17.6281 24.5768 18.1497 24.7072 18.5409 24.479C19.4211 23.99 20.1384 23.2728 20.6274 22.4577C21.149 21.6427 21.4424 20.6646 21.475 19.654C21.5076 19.1976 21.149 18.8064 20.6926 18.7738Z" fill="black"/>
</svg>
