<svg width="32" height="32" viewBox="0 0 32 32" fill="none" xmlns="http://www.w3.org/2000/svg">
<g clip-path="url(#clip0)">
<path d="M3.03019 16.7907C4.60769 18.1437 6.39561 19.6774 9.85399 19.6774C13.3125 19.6774 15.1005 18.1437 16.6781 16.7907C18.1699 15.5111 19.4584 14.4059 22.1458 14.4059C24.8332 14.4059 26.1216 15.5111 27.6135 16.7907C28.0502 17.1652 28.7078 17.1149 29.0823 16.6782C29.4569 16.2415 29.4065 15.5839 28.9698 15.2094C27.3923 13.8563 25.6042 12.3226 22.1458 12.3226C18.6873 12.3226 16.8993 13.8562 15.3217 15.2094C13.8298 16.4889 12.5414 17.5941 9.85399 17.5941C7.16665 17.5941 5.87837 16.489 4.38659 15.2094C3.94993 14.8348 3.29232 14.8851 2.91774 15.3218C2.54316 15.7585 2.59352 16.4161 3.03019 16.7907Z" fill="black"/>
<path d="M3.03019 11.0931C4.60764 12.4462 6.39555 13.9798 9.85399 13.9798C13.3125 13.9798 15.1005 12.4462 16.6781 11.0931C18.1699 9.81349 19.4583 8.70833 22.1458 8.70833C24.8331 8.70833 26.1215 9.81344 27.6135 11.0931C28.0502 11.4677 28.7077 11.4172 29.0823 10.9805C29.4569 10.5439 29.4064 9.88615 28.9697 9.51167C27.3922 8.15854 25.6041 6.625 22.1458 6.625C18.6873 6.625 16.8993 8.15865 15.3217 9.51177C13.8298 10.7914 12.5414 11.8965 9.85399 11.8965C7.1667 11.8965 5.87837 10.7914 4.38659 9.51177C3.94993 9.13719 3.29227 9.1875 2.91774 9.62422C2.54316 10.0609 2.59352 10.7185 3.03019 11.0931Z" fill="black"/>
<path d="M28.9698 20.9069C27.3923 19.5539 25.6043 18.0202 22.1458 18.0202C18.6873 18.0202 16.8993 19.5538 15.3217 20.9069C13.8298 22.1865 12.5414 23.2917 9.85401 23.2917C7.16682 23.2917 5.87843 22.1866 4.38666 20.907L4.38656 20.9069C3.94989 20.5325 3.29234 20.5828 2.91776 21.0194C2.54323 21.4561 2.59359 22.1138 3.03026 22.4883C4.60776 23.8414 6.39573 25.375 9.85401 25.375C13.3125 25.375 15.1005 23.8414 16.6781 22.4882C18.1699 21.2087 19.4584 20.1035 22.1458 20.1035C24.8332 20.1035 26.1217 21.2087 27.6135 22.4882C28.0502 22.8628 28.7078 22.8125 29.0823 22.3758C29.4569 21.9391 29.4066 21.2815 28.9698 20.9069Z" fill="black"/>
</g>
<defs>
<clipPath id="clip0">
<rect width="26.6667" height="26.6667" fill="white" transform="translate(2.66669 2.66666)"/>
</clipPath>
</defs>
</svg>
